{"glyphs":{"0":{"ha":1800,"x_min":39,"x_max":1761,"o":"m 900 -22 q 442 38 636 -22 q 144 211 249 99 q 39 478 39 324 l 39 494 q 144 762 39 650 q 442 934 249 874 q 900 994 636 994 q 1358 934 1165 994 q 1656 762 1551 874 q 1761 494 1761 650 l 1761 478 q 1656 211 1761 324 q 1358 38 1551 99 q 900 -22 1165 -22 m 900 297 q 1201 345 1090 297 q 1311 478 1311 393 l 1311 494 q 1201 627 1311 579 q 900 675 1090 675 q 600 627 711 675 q 489 494 489 579 l 489 478 q 600 345 489 393 q 900 297 711 297 z "},"1":{"ha":1789,"x_min":46,"x_max":1768,"o":"m 46 0 l 46 308 l 704 308 l 704 650 l 93 547 l 93 861 l 792 972 l 1135 972 l 1135 308 l 1768 308 l 1768 0 l 46 0 z "},"2":{"ha":1807,"x_min":46,"x_max":1768,"o":"m 46 0 l 46 267 l 801 433 q 1058 493 960 468 q 1208 536 1156 518 q 1280 569 1261 554 q 1299 601 1299 585 q 1266 644 1299 628 q 1178 671 1233 661 q 1056 684 1124 681 q 917 688 988 688 q 129 576 549 688 l 46 874 q 318 938 172 911 q 617 979 464 965 q 918 993 771 993 q 1163 981 1042 993 q 1389 945 1283 969 q 1576 883 1494 921 q 1703 790 1657 844 q 1749 665 1749 736 q 1682 521 1749 585 q 1475 403 1615 457 q 1113 296 1335 349 l 1083 289 l 1768 289 l 1754 0 l 46 0 z "},"3":{"ha":1769,"x_min":19,"x_max":1739,"o":"m 906 -22 q 601 -6 758 -22 q 295 39 444 10 q 19 106 146 68 l 140 388 q 527 308 340 333 q 894 283 714 283 q 1037 286 968 283 q 1161 297 1106 289 q 1249 322 1217 306 q 1282 364 1282 338 q 1249 408 1282 390 q 1158 438 1215 426 q 1028 453 1101 449 q 876 458 956 458 q 665 451 771 458 q 472 429 560 444 l 436 569 l 922 683 l 113 683 l 126 972 l 1638 972 l 1638 735 l 1193 622 q 1478 588 1356 625 q 1670 482 1601 550 q 1739 325 1739 414 q 1694 197 1739 253 q 1569 99 1649 140 q 1383 31 1489 57 q 1156 -9 1278 4 q 906 -22 1033 -22 z "},"4":{"ha":1782,"x_min":29,"x_max":1751,"o":"m 29 153 l 29 378 l 513 972 l 1022 972 l 585 447 l 999 447 l 999 653 l 1429 763 l 1429 447 l 1751 447 l 1751 153 l 1429 153 l 1429 0 l 999 0 l 999 153 l 29 153 z "},"5":{"ha":1778,"x_min":18,"x_max":1736,"o":"m 915 -22 q 606 -6 765 -22 q 297 41 447 11 q 18 110 146 71 l 138 388 q 524 308 338 333 q 892 283 711 283 q 1034 284 965 283 q 1158 290 1103 285 q 1247 310 1214 296 q 1279 350 1279 324 q 1222 394 1279 376 q 1069 420 1164 411 q 863 429 975 429 q 668 424 763 429 q 483 403 574 418 l 129 533 l 372 972 l 1674 972 l 1660 692 l 646 692 l 594 600 q 760 623 668 615 q 965 631 851 631 q 1193 621 1081 631 q 1403 590 1306 611 q 1576 533 1501 568 q 1694 446 1651 497 q 1736 324 1736 394 q 1669 169 1736 235 q 1485 61 1601 103 q 1222 -1 1369 19 q 915 -22 1075 -22 z "},"6":{"ha":1796,"x_min":40,"x_max":1763,"o":"m 913 -21 q 447 35 643 -21 q 146 201 251 92 q 40 467 40 310 l 40 489 q 92 673 40 592 q 233 815 143 754 q 442 915 324 875 q 699 975 561 956 q 979 994 836 994 q 1231 982 1100 994 q 1494 948 1363 969 q 1743 896 1625 926 l 1656 606 q 1302 681 1467 658 q 997 703 1138 703 q 763 685 872 703 q 580 628 653 667 q 493 528 507 590 q 713 596 593 574 q 997 618 833 618 q 1224 607 1113 618 q 1432 572 1335 596 q 1603 513 1529 549 q 1720 428 1678 478 q 1763 317 1763 379 q 1699 178 1763 240 q 1519 71 1635 115 q 1249 3 1404 26 q 913 -21 1094 -21 m 904 239 q 1117 250 1025 239 q 1260 281 1208 261 q 1313 325 1313 300 l 1313 333 q 1260 378 1313 358 q 1117 408 1208 397 q 904 419 1025 419 q 690 408 783 419 q 543 378 596 397 q 490 333 490 358 l 490 325 q 543 281 490 300 q 690 250 596 261 q 904 239 783 239 z "},"7":{"ha":1767,"x_min":21,"x_max":1743,"o":"m 357 0 q 465 256 383 132 q 692 488 546 381 q 1060 678 838 594 l 21 678 l 35 972 l 1743 972 l 1743 719 q 1410 581 1561 664 q 1144 401 1258 499 q 959 199 1029 303 q 871 0 889 96 l 357 0 z "},"8":{"ha":1783,"x_min":31,"x_max":1753,"o":"m 892 -22 q 542 0 700 -22 q 269 64 383 22 q 93 163 156 106 q 31 288 31 219 q 98 415 31 356 q 308 510 165 475 q 148 599 200 544 q 96 711 96 654 q 153 827 96 775 q 317 917 211 879 q 569 974 424 954 q 892 994 715 994 q 1214 974 1068 994 q 1466 917 1360 954 q 1630 827 1572 879 q 1688 711 1688 775 q 1635 599 1688 654 q 1475 510 1583 544 q 1685 415 1618 475 q 1753 288 1753 356 q 1690 163 1753 219 q 1514 64 1628 106 q 1242 0 1400 22 q 892 -22 1083 -22 m 892 596 q 1079 606 999 596 q 1205 635 1160 617 q 1250 678 1250 654 q 1205 722 1250 703 q 1079 751 1160 740 q 892 761 999 761 q 705 751 786 761 q 578 722 624 740 q 533 678 533 703 q 578 635 533 654 q 705 606 624 617 q 892 596 786 596 m 892 211 q 1106 223 1014 211 q 1251 256 1199 235 q 1303 304 1303 278 q 1251 353 1303 332 q 1106 385 1199 374 q 892 397 1014 397 q 678 385 771 397 q 533 353 585 374 q 481 304 481 332 q 533 256 481 278 q 678 223 585 235 q 892 211 771 211 z "},"9":{"ha":1796,"x_min":33,"x_max":1756,"o":"m 883 1004 q 1349 948 1153 1004 q 1650 783 1544 892 q 1756 517 1756 674 l 1756 494 q 1704 310 1756 392 q 1563 169 1653 229 q 1353 68 1472 108 q 1097 8 1235 28 q 817 -11 960 -11 q 565 1 697 -11 q 302 36 433 14 q 53 88 171 58 l 140 378 q 494 303 329 326 q 799 281 660 281 q 1033 298 924 281 q 1216 354 1143 315 q 1303 456 1289 393 q 1083 388 1203 410 q 799 365 964 365 q 572 376 683 365 q 364 411 461 388 q 192 470 267 435 q 76 555 118 506 q 33 667 33 604 q 97 806 33 744 q 276 913 161 868 q 547 981 392 957 q 883 1004 701 1004 m 892 744 q 680 733 772 744 q 535 703 588 722 q 483 658 483 683 l 483 650 q 535 606 483 625 q 680 575 588 586 q 892 564 772 564 q 1107 575 1014 564 q 1253 606 1200 586 q 1306 650 1306 625 l 1306 658 q 1253 703 1306 683 q 1107 733 1200 722 q 892 744 1014 744 z "},"A":{"ha":1706,"x_min":-8,"x_max":1714,"o":"m -8 0 l 599 972 l 1108 972 l 1714 0 l 1251 0 l 1168 151 l 542 151 l 454 0 l -8 0 m 726 474 l 679 390 l 1036 390 l 990 474 l 875 710 l 847 710 l 726 474 z "},"B":{"ha":1836,"x_min":81,"x_max":1803,"o":"m 81 0 l 81 972 l 1465 972 q 1694 905 1615 972 q 1772 725 1772 838 q 1718 581 1772 636 q 1549 504 1664 525 l 1549 476 q 1738 406 1672 465 q 1803 249 1803 347 q 1724 69 1803 138 q 1510 0 1646 0 l 81 0 m 511 593 l 1274 593 q 1315 608 1300 593 q 1331 649 1331 624 q 1315 690 1331 675 q 1274 704 1299 704 l 511 704 l 511 593 m 511 268 l 1296 268 q 1338 283 1322 268 q 1353 324 1353 299 q 1337 365 1353 350 q 1296 379 1321 379 l 511 379 l 511 268 z "},"C":{"ha":1760,"x_min":36,"x_max":1757,"o":"m 896 -22 q 441 39 635 -22 q 142 212 247 100 q 36 478 36 324 l 36 494 q 142 760 36 649 q 441 933 247 872 q 896 994 635 994 q 1429 905 1211 994 q 1757 654 1647 815 l 1325 526 q 1163 637 1269 599 q 896 675 1057 675 q 681 653 774 675 q 538 590 589 631 q 486 494 486 550 l 486 478 q 538 381 486 422 q 681 319 589 340 q 896 297 774 297 q 1163 335 1057 297 q 1325 446 1269 374 l 1757 318 q 1429 67 1647 157 q 896 -22 1211 -22 z "},"D":{"ha":1843,"x_min":81,"x_max":1803,"o":"m 81 0 l 81 972 l 1232 972 q 1534 914 1406 972 q 1733 749 1663 856 q 1803 494 1803 642 l 1803 478 q 1733 224 1803 331 q 1534 58 1663 117 q 1232 0 1406 0 l 81 0 m 511 314 l 1190 314 q 1308 358 1264 314 q 1353 478 1353 401 l 1353 494 q 1308 615 1353 571 q 1190 658 1264 658 l 511 658 l 511 314 z "},"E":{"ha":1857,"x_min":81,"x_max":1803,"o":"m 81 0 l 81 972 l 1803 972 l 1803 692 l 511 692 l 511 606 l 1653 606 l 1653 367 l 511 367 l 511 281 l 1803 281 l 1803 0 l 81 0 z "},"F":{"ha":1829,"x_min":81,"x_max":1803,"o":"m 81 0 l 81 972 l 1803 972 l 1803 650 l 511 650 l 511 536 l 1653 536 l 1653 242 l 511 242 l 511 0 l 81 0 z "},"G":{"ha":1813,"x_min":36,"x_max":1757,"o":"m 797 -22 q 494 13 633 -22 q 253 113 356 47 q 93 270 150 178 q 36 478 36 363 l 36 494 q 142 761 36 649 q 441 934 247 874 q 896 994 635 994 q 1429 916 1211 994 q 1757 696 1647 838 l 1325 568 q 1163 658 1269 626 q 896 689 1057 689 q 576 637 693 689 q 460 494 460 585 l 460 478 q 576 335 460 388 q 896 283 693 283 q 1063 292 976 283 q 1225 319 1149 301 q 1351 361 1301 336 l 892 361 l 892 528 l 1757 528 l 1757 0 l 1424 0 l 1438 208 l 1411 208 q 1274 85 1364 136 q 1062 6 1183 33 q 797 -22 940 -22 z "},"H":{"ha":1883,"x_min":81,"x_max":1803,"o":"m 81 0 l 81 972 l 511 972 l 511 654 l 1372 654 l 1372 972 l 1803 972 l 1803 0 l 1372 0 l 1372 346 l 511 346 l 511 0 l 81 0 z "},"I":{"ha":1842,"x_min":60,"x_max":1782,"o":"m 60 0 l 60 322 l 706 322 l 706 650 l 60 650 l 60 972 l 1782 972 l 1782 650 l 1136 650 l 1136 322 l 1782 322 l 1782 0 l 60 0 z "},"J":{"ha":1758,"x_min":-15,"x_max":1693,"o":"m 110 650 l 110 972 l 1693 972 l 1693 481 q 1629 242 1693 339 q 1453 88 1565 146 q 1197 3 1342 29 q 892 -22 1053 -22 q 568 0 732 -22 q 253 63 404 22 q -15 157 103 103 l 149 446 q 285 392 204 418 q 463 344 367 365 q 659 311 558 324 q 854 299 760 299 q 1059 322 967 299 q 1207 403 1151 346 q 1263 560 1263 461 l 1263 650 l 110 650 z "},"K":{"ha":1754,"x_min":81,"x_max":1803,"o":"m 81 0 l 81 972 l 511 972 l 511 581 l 1132 972 l 1761 972 l 1089 560 l 1803 0 l 1210 0 l 763 364 l 511 210 l 511 0 l 81 0 z "},"L":{"ha":1824,"x_min":81,"x_max":1803,"o":"m 81 0 l 81 972 l 511 972 l 511 322 l 1803 322 l 1803 0 l 81 0 z "},"M":{"ha":1883,"x_min":81,"x_max":1803,"o":"m 81 0 l 81 972 l 724 972 l 942 551 l 1160 972 l 1803 972 l 1803 0 l 1386 0 l 1386 597 l 1385 593 l 1076 0 l 807 0 l 499 593 l 497 597 l 497 0 l 81 0 z "},"N":{"ha":1883,"x_min":81,"x_max":1803,"o":"m 81 0 l 81 972 l 506 972 l 1372 436 l 1372 972 l 1803 972 l 1803 0 l 1378 0 l 511 536 l 511 0 l 81 0 z "},"O":{"ha":1794,"x_min":36,"x_max":1758,"o":"m 897 -22 q 440 38 633 -22 q 141 211 246 99 q 36 478 36 324 l 36 494 q 141 762 36 650 q 440 934 246 874 q 897 994 633 994 q 1356 934 1163 994 q 1653 762 1549 874 q 1758 494 1758 650 l 1758 478 q 1653 211 1758 324 q 1356 38 1549 99 q 897 -22 1163 -22 m 897 297 q 1198 345 1088 297 q 1308 478 1308 393 l 1308 494 q 1198 627 1308 579 q 897 675 1088 675 q 597 627 708 675 q 486 494 486 579 l 486 478 q 597 345 486 393 q 897 297 708 297 z "},"P":{"ha":1808,"x_min":81,"x_max":1789,"o":"m 81 0 l 81 972 l 1399 972 q 1694 891 1600 972 q 1789 644 1789 810 q 1748 447 1789 533 q 1621 312 1707 361 q 1399 263 1535 263 l 511 263 l 511 0 l 81 0 m 1282 676 l 511 676 l 511 554 l 1282 554 q 1324 571 1308 554 q 1339 615 1339 588 q 1323 660 1339 644 q 1282 676 1307 676 z "},"Q":{"ha":1794,"x_min":36,"x_max":1758,"o":"m 896 0 q 440 59 633 0 q 142 228 247 118 q 36 489 36 338 l 36 506 q 141 767 36 657 q 440 935 246 876 q 897 994 633 994 q 1261 960 1101 994 q 1532 865 1421 925 q 1701 726 1643 804 q 1758 561 1758 647 l 1758 560 q 1675 390 1758 454 q 1432 315 1592 326 l 1432 288 l 1757 288 l 1757 0 l 896 0 m 897 319 q 1198 365 1088 319 q 1308 489 1308 410 l 1308 506 q 1198 630 1308 585 q 897 675 1088 675 q 597 630 708 675 q 486 506 486 585 l 486 489 q 597 365 486 410 q 897 319 708 319 z "},"R":{"ha":1847,"x_min":81,"x_max":1803,"o":"m 81 0 l 81 972 l 1465 972 q 1693 906 1614 972 q 1772 725 1772 840 q 1718 581 1772 636 q 1549 504 1664 525 l 1549 476 q 1739 405 1675 465 q 1803 249 1803 344 l 1803 0 l 1353 0 l 1353 235 q 1338 275 1353 260 q 1296 290 1322 290 l 511 290 l 511 0 l 81 0 m 511 554 l 1268 554 q 1310 571 1294 554 q 1325 615 1325 588 q 1308 661 1325 646 q 1268 676 1292 676 l 511 676 l 511 554 z "},"S":{"ha":1771,"x_min":19,"x_max":1742,"o":"m 969 -22 q 628 -1 800 -22 q 299 56 456 21 q 19 133 142 92 l 149 360 q 594 247 382 272 q 1000 221 806 221 q 1218 233 1144 221 q 1292 271 1292 244 q 1238 304 1292 294 q 1094 316 1185 314 q 893 321 1004 318 q 666 331 783 324 q 439 356 549 338 q 242 411 329 375 q 102 507 154 447 q 50 657 50 567 q 109 817 50 751 q 271 921 168 882 q 506 977 374 960 q 785 994 639 994 q 1048 983 915 994 q 1306 951 1181 971 q 1538 904 1431 931 q 1721 849 1644 878 l 1592 622 q 1331 692 1474 664 q 1036 735 1189 721 q 733 750 883 750 q 501 701 501 750 q 556 669 501 679 q 701 658 610 660 q 901 653 792 656 q 1127 643 1010 650 q 1353 618 1244 636 q 1551 565 1463 600 q 1690 471 1639 529 q 1742 325 1742 413 q 1678 163 1742 229 q 1507 55 1615 96 q 1260 -4 1399 14 q 969 -22 1121 -22 z "},"T":{"ha":1764,"x_min":21,"x_max":1743,"o":"m 667 0 l 667 650 l 21 650 l 21 972 l 1743 972 l 1743 650 l 1097 650 l 1097 0 l 667 0 z "},"U":{"ha":1847,"x_min":63,"x_max":1785,"o":"m 924 -22 q 63 532 63 -22 l 63 972 l 493 972 l 493 546 q 924 297 493 297 q 1354 546 1354 297 l 1354 972 l 1785 972 l 1785 532 q 924 -22 1785 -22 z "},"V":{"ha":1703,"x_min":-10,"x_max":1713,"o":"m 596 0 l -10 972 l 472 972 l 844 314 l 1231 972 l 1713 972 l 1106 0 l 596 0 z "},"W":{"ha":2639,"x_min":-6,"x_max":2646,"o":"m 544 0 l -6 972 l 476 972 l 786 361 l 1110 972 l 1531 972 l 1840 361 l 2164 972 l 2646 972 l 2094 0 l 1599 0 l 1319 531 l 1040 0 l 544 0 z "},"X":{"ha":1678,"x_min":-22,"x_max":1700,"o":"m -22 0 l 540 485 l -22 972 l 533 972 l 840 693 l 1149 972 l 1700 972 l 1138 488 l 1700 0 l 1144 0 l 838 279 l 529 0 l -22 0 z "},"Y":{"ha":1711,"x_min":-6,"x_max":1717,"o":"m 640 0 l 640 350 l -6 972 l 532 972 l 856 651 l 1179 972 l 1717 972 l 1071 350 l 1071 0 l 640 0 z "},"Z":{"ha":1817,"x_min":36,"x_max":1772,"o":"m 36 0 l 36 267 l 938 664 l 85 664 l 85 972 l 1744 972 l 1744 706 l 843 308 l 1772 308 l 1772 0 l 36 0 z "},"a":{"ha":1706,"x_min":-8,"x_max":1714,"o":"m -8 0 l 599 972 l 1108 972 l 1714 0 l 1251 0 l 1168 151 l 542 151 l 454 0 l -8 0 m 726 474 l 679 390 l 1036 390 l 990 474 l 875 710 l 847 710 l 726 474 z "},"b":{"ha":1836,"x_min":81,"x_max":1803,"o":"m 81 0 l 81 972 l 1465 972 q 1694 905 1615 972 q 1772 725 1772 838 q 1718 581 1772 636 q 1549 504 1664 525 l 1549 476 q 1738 406 1672 465 q 1803 249 1803 347 q 1724 69 1803 138 q 1510 0 1646 0 l 81 0 m 511 593 l 1274 593 q 1315 608 1300 593 q 1331 649 1331 624 q 1315 690 1331 675 q 1274 704 1299 704 l 511 704 l 511 593 m 511 268 l 1296 268 q 1338 283 1322 268 q 1353 324 1353 299 q 1337 365 1353 350 q 1296 379 1321 379 l 511 379 l 511 268 z "},"c":{"ha":1760,"x_min":36,"x_max":1757,"o":"m 896 -22 q 441 39 635 -22 q 142 212 247 100 q 36 478 36 324 l 36 494 q 142 760 36 649 q 441 933 247 872 q 896 994 635 994 q 1429 905 1211 994 q 1757 654 1647 815 l 1325 526 q 1163 637 1269 599 q 896 675 1057 675 q 681 653 774 675 q 538 590 589 631 q 486 494 486 550 l 486 478 q 538 381 486 422 q 681 319 589 340 q 896 297 774 297 q 1163 335 1057 297 q 1325 446 1269 374 l 1757 318 q 1429 67 1647 157 q 896 -22 1211 -22 z "},"d":{"ha":1843,"x_min":81,"x_max":1803,"o":"m 81 0 l 81 972 l 1232 972 q 1534 914 1406 972 q 1733 749 1663 856 q 1803 494 1803 642 l 1803 478 q 1733 224 1803 331 q 1534 58 1663 117 q 1232 0 1406 0 l 81 0 m 511 314 l 1190 314 q 1308 358 1264 314 q 1353 478 1353 401 l 1353 494 q 1308 615 1353 571 q 1190 658 1264 658 l 511 658 l 511 314 z "},"e":{"ha":1857,"x_min":81,"x_max":1803,"o":"m 81 0 l 81 972 l 1803 972 l 1803 692 l 511 692 l 511 606 l 1653 606 l 1653 367 l 511 367 l 511 281 l 1803 281 l 1803 0 l 81 0 z "},"f":{"ha":1829,"x_min":81,"x_max":1803,"o":"m 81 0 l 81 972 l 1803 972 l 1803 650 l 511 650 l 511 536 l 1653 536 l 1653 242 l 511 242 l 511 0 l 81 0 z "},"g":{"ha":1813,"x_min":36,"x_max":1757,"o":"m 797 -22 q 494 13 633 -22 q 253 113 356 47 q 93 270 150 178 q 36 478 36 363 l 36 494 q 142 761 36 649 q 441 934 247 874 q 896 994 635 994 q 1429 916 1211 994 q 1757 696 1647 838 l 1325 568 q 1163 658 1269 626 q 896 689 1057 689 q 576 637 693 689 q 460 494 460 585 l 460 478 q 576 335 460 388 q 896 283 693 283 q 1063 292 976 283 q 1225 319 1149 301 q 1351 361 1301 336 l 892 361 l 892 528 l 1757 528 l 1757 0 l 1424 0 l 1438 208 l 1411 208 q 1274 85 1364 136 q 1062 6 1183 33 q 797 -22 940 -22 z "},"h":{"ha":1883,"x_min":81,"x_max":1803,"o":"m 81 0 l 81 972 l 511 972 l 511 654 l 1372 654 l 1372 972 l 1803 972 l 1803 0 l 1372 0 l 1372 346 l 511 346 l 511 0 l 81 0 z "},"i":{"ha":1842,"x_min":60,"x_max":1782,"o":"m 60 0 l 60 322 l 706 322 l 706 650 l 60 650 l 60 972 l 1782 972 l 1782 650 l 1136 650 l 1136 322 l 1782 322 l 1782 0 l 60 0 z "},"j":{"ha":1758,"x_min":-15,"x_max":1693,"o":"m 110 650 l 110 972 l 1693 972 l 1693 481 q 1629 242 1693 339 q 1453 88 1565 146 q 1197 3 1342 29 q 892 -22 1053 -22 q 568 0 732 -22 q 253 63 404 22 q -15 157 103 103 l 149 446 q 285 392 204 418 q 463 344 367 365 q 659 311 558 324 q 854 299 760 299 q 1059 322 967 299 q 1207 403 1151 346 q 1263 560 1263 461 l 1263 650 l 110 650 z "},"k":{"ha":1754,"x_min":81,"x_max":1803,"o":"m 81 0 l 81 972 l 511 972 l 511 581 l 1132 972 l 1761 972 l 1089 560 l 1803 0 l 1210 0 l 763 364 l 511 210 l 511 0 l 81 0 z "},"l":{"ha":1824,"x_min":81,"x_max":1803,"o":"m 81 0 l 81 972 l 511 972 l 511 322 l 1803 322 l 1803 0 l 81 0 z "},"m":{"ha":1883,"x_min":81,"x_max":1803,"o":"m 81 0 l 81 972 l 724 972 l 942 551 l 1160 972 l 1803 972 l 1803 0 l 1386 0 l 1386 597 l 1385 593 l 1076 0 l 807 0 l 499 593 l 497 597 l 497 0 l 81 0 z "},"n":{"ha":1883,"x_min":81,"x_max":1803,"o":"m 81 0 l 81 972 l 506 972 l 1372 436 l 1372 972 l 1803 972 l 1803 0 l 1378 0 l 511 536 l 511 0 l 81 0 z "},"o":{"ha":1794,"x_min":36,"x_max":1758,"o":"m 897 -22 q 440 38 633 -22 q 141 211 246 99 q 36 478 36 324 l 36 494 q 141 762 36 650 q 440 934 246 874 q 897 994 633 994 q 1356 934 1163 994 q 1653 762 1549 874 q 1758 494 1758 650 l 1758 478 q 1653 211 1758 324 q 1356 38 1549 99 q 897 -22 1163 -22 m 897 297 q 1198 345 1088 297 q 1308 478 1308 393 l 1308 494 q 1198 627 1308 579 q 897 675 1088 675 q 597 627 708 675 q 486 494 486 579 l 486 478 q 597 345 486 393 q 897 297 708 297 z "},"p":{"ha":1808,"x_min":81,"x_max":1789,"o":"m 81 0 l 81 972 l 1399 972 q 1694 891 1600 972 q 1789 644 1789 810 q 1748 447 1789 533 q 1621 312 1707 361 q 1399 263 1535 263 l 511 263 l 511 0 l 81 0 m 1282 676 l 511 676 l 511 554 l 1282 554 q 1324 571 1308 554 q 1339 615 1339 588 q 1323 660 1339 644 q 1282 676 1307 676 z "},"q":{"ha":1794,"x_min":36,"x_max":1758,"o":"m 896 0 q 440 59 633 0 q 142 228 247 118 q 36 489 36 338 l 36 506 q 141 767 36 657 q 440 935 246 876 q 897 994 633 994 q 1261 960 1101 994 q 1532 865 1421 925 q 1701 726 1643 804 q 1758 561 1758 647 l 1758 560 q 1675 390 1758 454 q 1432 315 1592 326 l 1432 288 l 1757 288 l 1757 0 l 896 0 m 897 319 q 1198 365 1088 319 q 1308 489 1308 410 l 1308 506 q 1198 630 1308 585 q 897 675 1088 675 q 597 630 708 675 q 486 506 486 585 l 486 489 q 597 365 486 410 q 897 319 708 319 z "},"r":{"ha":1847,"x_min":81,"x_max":1803,"o":"m 81 0 l 81 972 l 1465 972 q 1693 906 1614 972 q 1772 725 1772 840 q 1718 581 1772 636 q 1549 504 1664 525 l 1549 476 q 1739 405 1675 465 q 1803 249 1803 344 l 1803 0 l 1353 0 l 1353 235 q 1338 275 1353 260 q 1296 290 1322 290 l 511 290 l 511 0 l 81 0 m 511 554 l 1268 554 q 1310 571 1294 554 q 1325 615 1325 588 q 1308 661 1325 646 q 1268 676 1292 676 l 511 676 l 511 554 z "},"s":{"ha":1771,"x_min":19,"x_max":1742,"o":"m 969 -22 q 628 -1 800 -22 q 299 56 456 21 q 19 133 142 92 l 149 360 q 594 247 382 272 q 1000 221 806 221 q 1218 233 1144 221 q 1292 271 1292 244 q 1238 304 1292 294 q 1094 316 1185 314 q 893 321 1004 318 q 666 331 783 324 q 439 356 549 338 q 242 411 329 375 q 102 507 154 447 q 50 657 50 567 q 109 817 50 751 q 271 921 168 882 q 506 977 374 960 q 785 994 639 994 q 1048 983 915 994 q 1306 951 1181 971 q 1538 904 1431 931 q 1721 849 1644 878 l 1592 622 q 1331 692 1474 664 q 1036 735 1189 721 q 733 750 883 750 q 501 701 501 750 q 556 669 501 679 q 701 658 610 660 q 901 653 792 656 q 1127 643 1010 650 q 1353 618 1244 636 q 1551 565 1463 600 q 1690 471 1639 529 q 1742 325 1742 413 q 1678 163 1742 229 q 1507 55 1615 96 q 1260 -4 1399 14 q 969 -22 1121 -22 z "},"t":{"ha":1764,"x_min":21,"x_max":1743,"o":"m 667 0 l 667 650 l 21 650 l 21 972 l 1743 972 l 1743 650 l 1097 650 l 1097 0 l 667 0 z "},"u":{"ha":1847,"x_min":63,"x_max":1785,"o":"m 924 -22 q 63 532 63 -22 l 63 972 l 493 972 l 493 546 q 924 297 493 297 q 1354 546 1354 297 l 1354 972 l 1785 972 l 1785 532 q 924 -22 1785 -22 z "},"v":{"ha":1703,"x_min":-10,"x_max":1713,"o":"m 596 0 l -10 972 l 472 972 l 844 314 l 1231 972 l 1713 972 l 1106 0 l 596 0 z "},"w":{"ha":2639,"x_min":-6,"x_max":2646,"o":"m 544 0 l -6 972 l 476 972 l 786 361 l 1110 972 l 1531 972 l 1840 361 l 2164 972 l 2646 972 l 2094 0 l 1599 0 l 1319 531 l 1040 0 l 544 0 z "},"x":{"ha":1678,"x_min":-22,"x_max":1700,"o":"m -22 0 l 540 485 l -22 972 l 533 972 l 840 693 l 1149 972 l 1700 972 l 1138 488 l 1700 0 l 1144 0 l 838 279 l 529 0 l -22 0 z "},"y":{"ha":1711,"x_min":-6,"x_max":1717,"o":"m 640 0 l 640 350 l -6 972 l 532 972 l 856 651 l 1179 972 l 1717 972 l 1071 350 l 1071 0 l 640 0 z "},"z":{"ha":1817,"x_min":36,"x_max":1772,"o":"m 36 0 l 36 267 l 938 664 l 85 664 l 85 972 l 1744 972 l 1744 706 l 843 308 l 1772 308 l 1772 0 l 36 0 z "}," ":{"ha":422,"x_min":0,"x_max":0,"o":""},".":{"ha":556,"x_min":63,"x_max":493,"o":"m 63 0 l 63 333 l 493 333 l 493 0 l 63 0 z "},",":{"ha":556,"x_min":63,"x_max":493,"o":"m 104 -236 l 260 0 l 63 0 l 63 333 l 493 333 l 493 -7 l 333 -236 l 104 -236 z "},":":{"ha":589,"x_min":79,"x_max":510,"o":"m 79 472 l 79 806 l 510 806 l 510 472 l 79 472 m 79 0 l 79 333 l 510 333 l 510 0 l 79 0 z "},";":{"ha":589,"x_min":79,"x_max":510,"o":"m 79 472 l 79 806 l 510 806 l 510 472 l 79 472 m 121 -236 l 276 0 l 79 0 l 79 333 l 510 333 l 510 -7 l 350 -236 l 121 -236 z "},"…":{"ha":1236,"x_min":63,"x_max":1174,"o":"m 840 0 l 840 333 l 1174 333 l 1174 0 l 840 0 m 63 0 l 63 333 l 396 333 l 396 0 l 63 0 m 451 0 l 451 333 l 785 333 l 785 0 l 451 0 z "},"!":{"ha":475,"x_min":71,"x_max":404,"o":"m 154 403 l 71 606 l 71 972 l 404 972 l 404 606 l 321 403 l 154 403 m 71 0 l 71 333 l 404 333 l 404 0 l 71 0 z "},"?":{"ha":1765,"x_min":15,"x_max":1743,"o":"m 608 404 l 608 619 l 800 619 q 1059 625 949 619 q 1231 643 1169 631 q 1293 674 1293 656 q 1239 704 1293 692 q 1090 724 1185 717 q 874 731 994 731 q 487 707 671 731 q 108 633 303 683 l 15 892 q 405 965 189 936 q 872 994 621 994 q 1129 985 1003 994 q 1367 954 1256 975 q 1563 901 1478 933 q 1695 823 1647 868 q 1743 719 1743 778 q 1658 591 1743 642 q 1414 513 1572 540 q 1039 478 1256 486 l 1039 404 l 608 404 m 608 0 l 608 333 l 1039 333 l 1039 0 l 608 0 z "},"·":{"ha":572,"x_min":71,"x_max":501,"o":"m 71 322 l 71 656 l 501 656 l 501 322 l 71 322 z "},"•":{"ha":600,"x_min":35,"x_max":565,"o":"m 300 194 q 166 230 226 194 q 70 326 106 265 q 35 460 35 386 q 70 594 35 533 q 166 690 106 654 q 300 725 226 725 q 434 690 374 725 q 530 594 494 654 q 565 460 565 533 q 530 326 565 386 q 434 230 494 265 q 300 194 374 194 z "},"*":{"ha":742,"x_min":29,"x_max":713,"o":"m 256 338 l 93 467 l 228 607 l 29 658 l 97 853 l 286 767 l 268 972 l 474 972 l 456 767 l 643 853 l 713 658 l 514 608 l 647 467 l 485 338 l 371 517 l 256 338 z "},"#":{"ha":1378,"x_min":33,"x_max":1344,"o":"m 179 0 l 214 181 l 33 181 l 33 417 l 258 417 l 283 556 l 89 556 l 89 792 l 328 792 l 363 972 l 646 972 l 611 792 l 881 792 l 915 972 l 1199 972 l 1164 792 l 1344 792 l 1344 556 l 1119 556 l 1094 417 l 1289 417 l 1289 181 l 1050 181 l 1015 0 l 732 0 l 767 181 l 497 181 l 463 0 l 179 0 m 542 417 l 811 417 l 836 556 l 567 556 l 542 417 z "},"/":{"ha":590,"x_min":18,"x_max":572,"o":"m 18 0 l 297 972 l 572 972 l 293 0 l 18 0 z "},"\\":{"ha":590,"x_min":18,"x_max":572,"o":"m 572 0 l 297 0 l 18 972 l 293 972 l 572 0 z "},"-":{"ha":711,"x_min":64,"x_max":647,"o":"m 64 263 l 64 529 l 647 529 l 647 263 l 64 263 z "},"–":{"ha":1100,"x_min":64,"x_max":1036,"o":"m 64 263 l 64 529 l 1036 529 l 1036 263 l 64 263 z "},"—":{"ha":1600,"x_min":64,"x_max":1536,"o":"m 64 263 l 64 529 l 1536 529 l 1536 263 l 64 263 z "},"_":{"ha":1561,"x_min":31,"x_max":1531,"o":"m 31 -279 l 31 -39 l 1531 -39 l 1531 -279 l 31 -279 z "},"(":{"ha":550,"x_min":36,"x_max":531,"o":"m 443 -125 q 217 40 307 -57 q 81 249 126 136 q 36 479 36 363 q 81 710 36 597 q 217 920 126 824 q 443 1083 307 1017 l 531 1044 q 440 897 478 986 q 384 700 403 807 q 365 479 365 593 q 384 260 365 368 q 440 63 403 153 q 531 -82 476 -26 l 443 -125 z "},")":{"ha":550,"x_min":19,"x_max":514,"o":"m 107 -125 l 19 -82 q 110 63 74 -26 q 166 260 147 153 q 185 479 185 368 q 166 700 185 593 q 110 897 147 807 q 19 1044 74 986 l 107 1083 q 333 920 243 1017 q 469 710 424 824 q 514 479 514 597 q 469 249 514 363 q 333 40 424 136 q 107 -125 243 -57 z "},"{":{"ha":588,"x_min":36,"x_max":538,"o":"m 406 -125 q 149 -62 218 -125 q 107 153 81 1 l 129 281 q 115 369 140 346 q 36 392 90 392 l 36 567 q 115 590 90 567 q 129 678 140 613 l 107 806 q 149 1020 81 957 q 406 1083 218 1083 l 538 1083 l 538 867 l 454 867 q 404 819 396 867 l 435 636 q 410 522 449 556 q 300 479 372 488 q 410 438 372 471 q 435 322 449 404 l 404 139 q 454 92 396 92 l 538 92 l 538 -125 l 406 -125 z "},"}":{"ha":588,"x_min":50,"x_max":551,"o":"m 182 -125 l 50 -125 l 50 92 l 133 92 q 183 139 192 92 l 153 322 q 177 438 139 404 q 288 479 215 471 q 177 522 215 488 q 153 636 139 556 l 183 819 q 133 867 192 867 l 50 867 l 50 1083 l 182 1083 q 438 1020 369 1083 q 481 806 507 957 l 458 678 q 472 590 447 613 q 551 567 497 567 l 551 392 q 472 369 497 392 q 458 281 447 346 l 481 153 q 438 -62 507 1 q 182 -125 369 -125 z "},"[":{"ha":618,"x_min":81,"x_max":571,"o":"m 81 -125 l 81 1083 l 571 1083 l 571 867 l 408 867 l 408 92 l 571 92 l 571 -125 l 81 -125 z "},"]":{"ha":618,"x_min":47,"x_max":538,"o":"m 538 -125 l 47 -125 l 47 92 l 210 92 l 210 867 l 47 867 l 47 1083 l 538 1083 l 538 -125 z "},"‚":{"ha":556,"x_min":63,"x_max":493,"o":"m 104 -236 l 260 0 l 63 0 l 63 333 l 493 333 l 493 -7 l 333 -236 l 104 -236 z "},"„":{"ha":1047,"x_min":63,"x_max":985,"o":"m 596 -236 l 751 0 l 554 0 l 554 333 l 985 333 l 985 -7 l 825 -236 l 596 -236 m 104 -236 l 260 0 l 63 0 l 63 333 l 493 333 l 493 -7 l 333 -236 l 104 -236 z "},"“":{"ha":1040,"x_min":58,"x_max":981,"o":"m 550 403 l 550 743 l 710 972 l 939 972 l 783 736 l 981 736 l 981 403 l 550 403 m 58 403 l 58 743 l 218 972 l 447 972 l 292 736 l 489 736 l 489 403 l 58 403 z "},"”":{"ha":1028,"x_min":56,"x_max":978,"o":"m 589 403 l 744 639 l 547 639 l 547 972 l 978 972 l 978 632 l 818 403 l 589 403 m 97 403 l 253 639 l 56 639 l 56 972 l 486 972 l 486 632 l 326 403 l 97 403 z "},"‘":{"ha":549,"x_min":58,"x_max":489,"o":"m 58 403 l 58 743 l 218 972 l 447 972 l 292 736 l 489 736 l 489 403 l 58 403 z "},"’":{"ha":536,"x_min":56,"x_max":486,"o":"m 97 403 l 253 639 l 56 639 l 56 972 l 486 972 l 486 632 l 326 403 l 97 403 z "},"\"":{"ha":692,"x_min":46,"x_max":646,"o":"m 394 565 l 357 972 l 646 972 l 608 565 l 394 565 m 83 565 l 46 972 l 335 972 l 297 565 l 83 565 z "},"'":{"ha":381,"x_min":46,"x_max":335,"o":"m 83 565 l 46 972 l 335 972 l 297 565 l 83 565 z "},"@":{"ha":1129,"x_min":39,"x_max":1093,"o":"m 503 193 q 346 263 406 193 q 286 442 286 332 q 314 583 286 514 q 399 697 342 651 q 540 742 456 742 q 637 720 597 742 q 700 663 676 699 l 707 697 l 881 697 l 813 375 q 842 332 804 332 q 892 355 864 332 q 942 425 921 378 q 963 543 963 472 q 915 719 963 647 q 785 829 867 792 q 603 867 703 867 q 382 811 476 867 q 235 660 288 756 q 183 443 183 564 q 231 241 183 326 q 364 109 279 156 q 557 63 449 63 q 668 77 613 63 q 778 126 724 92 l 854 24 q 704 -47 782 -28 q 551 -67 626 -67 q 285 -3 401 -67 q 104 175 169 60 q 39 443 39 290 q 81 662 39 561 q 200 837 124 763 q 379 953 276 911 q 603 994 482 994 q 861 936 751 994 q 1032 778 971 878 q 1093 553 1093 679 q 1051 367 1093 449 q 941 240 1010 286 q 790 193 872 193 q 653 257 693 193 q 589 210 626 228 q 503 193 551 193 m 560 364 q 628 396 600 364 q 656 474 656 428 q 631 535 656 510 q 571 560 607 560 q 503 530 531 560 q 475 456 475 500 q 500 390 475 417 q 560 364 525 364 z "},"&":{"ha":1757,"x_min":31,"x_max":1753,"o":"m 668 -22 q 420 0 536 -22 q 217 63 304 22 q 80 163 129 104 q 31 293 31 221 q 91 436 31 375 q 252 531 151 497 q 476 564 353 565 l 253 736 l 253 972 l 1325 972 l 1311 692 l 822 692 l 1197 413 q 1252 488 1226 444 q 1299 593 1278 531 l 1675 536 q 1593 365 1647 444 q 1457 221 1539 285 l 1753 0 l 1208 0 l 1121 67 q 907 -2 1021 18 q 668 -22 793 -22 m 481 318 q 515 270 481 290 q 606 239 549 250 q 732 228 664 228 q 816 233 778 228 q 889 247 854 238 l 686 401 q 591 395 639 404 q 512 367 543 386 q 481 318 481 347 z "},"©":{"ha":1211,"x_min":39,"x_max":1172,"o":"m 606 -21 q 307 42 435 -21 q 109 219 179 106 q 39 488 39 333 q 109 754 39 640 q 307 931 179 868 q 606 994 435 994 q 905 931 778 994 q 1102 754 1032 868 q 1172 488 1172 640 q 1102 219 1172 333 q 905 42 1032 106 q 606 -21 778 -21 m 606 124 q 812 169 724 124 q 949 297 900 215 q 999 488 999 379 q 949 678 999 596 q 812 805 900 760 q 606 850 724 850 q 399 805 488 850 q 262 678 311 760 q 213 488 213 596 q 262 297 213 379 q 399 169 311 215 q 606 124 488 124 m 614 204 q 449 237 521 204 q 337 328 378 269 q 296 464 296 388 l 296 508 q 337 644 296 586 q 449 735 378 703 q 614 768 521 768 q 760 742 694 768 q 867 669 825 715 q 917 558 908 622 l 701 515 q 674 569 699 547 q 614 592 650 592 q 551 568 576 592 q 525 508 525 544 l 525 464 q 551 405 525 429 q 614 381 576 381 q 674 403 650 381 q 701 457 699 425 l 917 414 q 867 304 908 351 q 760 231 825 257 q 614 204 694 204 z "},"®":{"ha":772,"x_min":35,"x_max":736,"o":"m 385 367 q 201 406 279 367 q 78 515 122 444 q 35 681 35 586 q 78 846 35 775 q 201 956 122 917 q 385 994 279 994 q 570 956 492 994 q 692 846 649 917 q 736 681 736 775 q 692 515 736 586 q 570 406 649 444 q 385 367 492 367 m 385 456 q 562 517 496 456 q 628 681 628 579 q 562 844 628 782 q 385 906 496 906 q 208 844 275 906 q 142 681 142 782 q 208 517 142 579 q 385 456 275 456 m 239 528 l 239 832 l 454 832 q 524 805 499 832 q 550 729 550 778 q 489 633 550 653 l 550 528 l 407 528 l 364 628 l 363 628 l 363 528 l 239 528 m 403 740 l 363 740 l 363 701 l 403 701 q 421 721 421 701 q 403 740 421 740 z "},"™":{"ha":1404,"x_min":38,"x_max":1325,"o":"m 589 460 l 589 972 l 872 972 l 957 735 l 1043 972 l 1325 972 l 1325 460 l 1126 460 l 1126 724 l 1032 460 l 881 460 l 786 731 l 786 460 l 589 460 m 189 460 l 189 803 l 38 803 l 38 972 l 543 972 l 543 803 l 393 803 l 393 460 l 189 460 z "},"°":{"ha":654,"x_min":36,"x_max":618,"o":"m 326 476 q 176 507 242 476 q 74 591 111 538 q 36 714 36 644 l 36 757 q 74 880 36 826 q 176 964 111 933 q 326 994 242 994 q 478 964 413 994 q 581 880 543 933 q 618 757 618 826 l 618 714 q 581 591 618 644 q 478 507 543 538 q 326 476 413 476 m 326 646 q 382 666 360 646 q 404 715 404 686 l 404 756 q 382 805 404 785 q 326 825 360 825 q 272 805 294 825 q 250 756 250 785 l 250 715 q 272 666 250 686 q 326 646 294 646 z "},"|":{"ha":453,"x_min":81,"x_max":372,"o":"m 81 -160 l 81 1083 l 372 1083 l 372 -160 l 81 -160 z "},"$":{"ha":1092,"x_min":31,"x_max":1056,"o":"m 393 -139 l 393 17 q 166 106 261 43 q 31 258 71 168 l 350 347 q 444 266 383 292 q 581 240 506 240 q 697 292 697 240 q 662 333 697 321 q 569 349 626 344 q 442 359 511 354 q 304 377 374 364 q 177 421 235 390 q 84 506 119 451 q 49 649 49 560 q 140 858 49 775 q 393 964 232 942 l 393 1111 l 665 1111 l 665 961 q 899 882 799 939 q 1043 740 999 825 l 717 650 q 666 697 700 679 q 592 724 632 715 q 514 732 551 732 q 436 719 465 732 q 407 682 407 706 q 442 643 407 654 q 535 629 478 632 q 663 623 593 626 q 801 608 732 619 q 927 567 869 596 q 1020 483 985 538 q 1056 340 1056 429 q 951 113 1056 201 q 665 4 847 24 l 665 -139 l 393 -139 z "},"€":{"ha":1219,"x_min":43,"x_max":1188,"o":"m 43 354 l 43 465 l 140 465 l 140 507 l 43 507 l 43 618 l 149 618 q 240 815 169 731 q 419 947 310 900 q 665 994 528 994 q 915 947 803 994 q 1101 815 1028 900 q 1188 617 1174 731 l 825 539 q 770 646 815 603 q 660 689 725 689 q 583 669 617 689 q 532 618 550 650 l 686 618 l 686 507 l 511 507 l 511 465 l 686 465 l 686 354 l 532 354 q 583 303 550 322 q 660 283 617 283 q 770 326 725 283 q 825 433 815 369 l 1188 356 q 1101 158 1174 243 q 915 25 1028 72 q 665 -22 803 -22 q 419 25 528 -22 q 240 157 310 72 q 149 354 169 242 l 43 354 z "},"£":{"ha":1076,"x_min":31,"x_max":1050,"o":"m 72 0 l 72 28 q 130 215 104 121 q 176 401 156 308 l 31 401 l 31 563 l 208 563 q 225 667 218 614 q 358 913 249 831 q 640 994 468 994 q 900 934 789 994 q 1050 750 1011 874 l 724 650 q 697 703 714 685 q 653 721 681 721 q 608 704 624 721 q 586 639 593 688 q 575 563 581 601 l 856 563 l 856 401 l 546 401 q 518 281 533 342 l 1015 281 l 1001 0 l 72 0 z "},"+":{"ha":764,"x_min":79,"x_max":685,"o":"m 276 82 l 276 279 l 79 279 l 79 490 l 276 490 l 276 688 l 488 688 l 488 490 l 685 490 l 685 279 l 488 279 l 488 82 l 276 82 z "},"−":{"ha":764,"x_min":79,"x_max":685,"o":"m 79 279 l 79 490 l 685 490 l 685 279 l 79 279 z "},"×":{"ha":764,"x_min":74,"x_max":690,"o":"m 222 76 l 74 225 l 233 385 l 74 544 l 222 693 l 382 533 l 542 693 l 690 544 l 531 385 l 690 225 l 542 76 l 382 236 l 222 76 z "},"=":{"ha":764,"x_min":79,"x_max":685,"o":"m 79 439 l 79 650 l 685 650 l 685 439 l 79 439 m 79 133 l 79 344 l 685 344 l 685 133 l 79 133 z "},"%":{"ha":1275,"x_min":28,"x_max":1247,"o":"m 276 449 q 148 479 204 449 q 60 563 92 510 q 28 686 28 617 l 28 757 q 60 880 28 826 q 148 964 92 933 q 276 994 204 994 q 406 964 350 994 q 493 880 461 933 q 525 757 525 826 l 525 686 q 493 563 525 617 q 406 479 461 510 q 276 449 350 449 m 246 0 l 801 972 l 1029 972 l 474 0 l 246 0 m 276 626 q 320 644 304 626 q 336 690 336 663 l 336 753 q 320 799 336 781 q 276 817 304 817 q 233 799 250 817 q 217 753 217 781 l 217 690 q 233 644 217 663 q 276 626 250 626 m 999 -22 q 870 8 926 -22 q 782 92 814 39 q 750 215 750 146 l 750 286 q 782 409 750 356 q 870 493 814 463 q 999 524 926 524 q 1128 493 1072 524 q 1215 409 1183 463 q 1247 286 1247 356 l 1247 215 q 1215 92 1247 146 q 1128 8 1183 39 q 999 -22 1072 -22 m 999 156 q 1042 174 1026 156 q 1058 219 1058 192 l 1058 282 q 1042 328 1058 310 q 999 346 1026 346 q 956 328 972 346 q 939 282 939 310 l 939 219 q 956 174 939 192 q 999 156 972 156 z "}," ":{"ha":422,"x_min":0,"x_max":0,"o":""}," ":{"ha":694,"x_min":0,"x_max":0,"o":""}," ":{"ha":1389,"x_min":0,"x_max":0,"o":""}," ":{"ha":694,"x_min":0,"x_max":0,"o":""}," ":{"ha":1389,"x_min":0,"x_max":0,"o":""}," ":{"ha":463,"x_min":0,"x_max":0,"o":""}," ":{"ha":347,"x_min":0,"x_max":0,"o":""}," ":{"ha":231,"x_min":0,"x_max":0,"o":""}," ":{"ha":1800,"x_min":0,"x_max":0,"o":""}," ":{"ha":556,"x_min":0,"x_max":0,"o":""}," ":{"ha":174,"x_min":0,"x_max":0,"o":""}," ":{"ha":97,"x_min":0,"x_max":0,"o":""},"​":{"ha":0,"x_min":0,"x_max":0,"o":""}," ":{"ha":85,"x_min":0,"x_max":0,"o":""}," ":{"ha":308,"x_min":0,"x_max":0,"o":""}," ":{"ha":833,"x_min":0,"x_max":0,"o":""}," ":{"ha":833,"x_min":0,"x_max":0,"o":""},"¢":{"ha":878,"x_min":22,"x_max":871,"o":"m 311 0 l 311 133 q 101 251 179 165 q 22 456 22 338 l 22 517 q 101 721 22 635 q 311 839 179 807 l 311 972 l 583 972 l 583 842 q 776 745 700 815 q 871 575 851 675 l 543 524 q 513 585 535 560 q 454 610 492 610 q 388 584 415 610 q 361 522 361 558 l 361 450 q 388 388 361 414 q 454 363 415 363 q 513 388 492 363 q 543 449 535 413 l 871 397 q 776 227 851 297 q 583 131 700 157 l 583 0 l 311 0 z "},"¥":{"ha":1106,"x_min":-17,"x_max":1122,"o":"m 92 144 l 92 319 l 358 319 l 358 375 l 92 375 l 92 550 l 253 550 l -17 972 l 424 972 l 550 739 l 685 972 l 1122 972 l 853 550 l 1014 550 l 1014 375 l 747 375 l 747 319 l 1014 319 l 1014 144 l 747 144 l 747 0 l 358 0 l 358 144 l 92 144 z "},"÷":{"ha":694,"x_min":44,"x_max":650,"o":"m 233 554 l 233 769 l 460 769 l 460 554 l 233 554 m 44 279 l 44 490 l 650 490 l 650 279 l 44 279 m 233 0 l 233 215 l 460 215 l 460 0 l 233 0 z "},">":{"ha":693,"x_min":44,"x_max":649,"o":"m 44 68 l 44 272 l 363 376 l 44 481 l 44 685 l 649 474 l 649 279 l 44 68 z "},"<":{"ha":693,"x_min":44,"x_max":649,"o":"m 649 68 l 44 279 l 44 474 l 649 685 l 649 481 l 331 376 l 649 272 l 649 68 z "},"~":{"ha":733,"x_min":21,"x_max":713,"o":"m 483 233 q 408 247 440 233 q 350 279 376 261 q 300 311 324 297 q 249 325 276 325 q 188 303 214 325 q 135 251 163 282 l 21 382 q 119 490 64 443 q 250 536 175 536 q 325 522 293 536 q 383 490 357 508 q 434 458 410 472 q 485 444 458 444 q 547 466 521 444 q 599 518 572 488 l 713 388 q 614 280 669 326 q 483 233 558 233 z "},"^":{"ha":725,"x_min":42,"x_max":683,"o":"m 42 419 l 261 972 l 464 972 l 683 419 l 463 419 l 363 699 l 263 419 l 42 419 z "},"`":{"ha":503,"x_min":69,"x_max":433,"o":"m 228 790 l 69 1015 l 338 1015 l 433 790 l 228 790 z "}}}
